<svg width="34" height="34" viewBox="0 0 34 34" fill="none" xmlns="http://www.w3.org/2000/svg">
<g opacity="0.3">
<rect x="6" y="6" width="22" height="22" rx="11" stroke="#1570EF" stroke-width="2"/>
</g>
<g opacity="0.1">
<rect x="1" y="1" width="32" height="32" rx="16" stroke="#1570EF" stroke-width="2"/>
</g>
<g clip-path="url(#clip0_22500_2736)">
<path d="M13.0629 16.4858C13.0215 16.2187 13 15.9452 13 15.6666C13 12.7211 15.4035 10.3333 18.3684 10.3333C21.3333 10.3333 23.7368 12.7211 23.7368 15.6666C23.7368 16.332 23.6142 16.9689 23.3901 17.5563C23.3436 17.6782 23.3203 17.7392 23.3097 17.7869C23.2993 17.834 23.2952 17.8672 23.2941 17.9156C23.2929 17.9643 23.2996 18.018 23.3128 18.1255L23.5812 20.3056C23.6102 20.5416 23.6248 20.6596 23.5855 20.7454C23.5511 20.8206 23.49 20.8803 23.4141 20.9129C23.3274 20.9502 23.2098 20.9329 22.9745 20.8985L20.851 20.5872C20.7401 20.5709 20.6847 20.5628 20.6342 20.5631C20.5842 20.5634 20.5497 20.5671 20.5008 20.5773C20.4514 20.5877 20.3882 20.6114 20.262 20.6587C19.6731 20.8792 19.035 20.9999 18.3684 20.9999C18.0896 20.9999 17.8158 20.9788 17.5485 20.9381M14.0877 23.6666C16.0643 23.6666 17.6667 22.025 17.6667 19.9999C17.6667 17.9749 16.0643 16.3333 14.0877 16.3333C12.1111 16.3333 10.5088 17.9749 10.5088 19.9999C10.5088 20.407 10.5735 20.7985 10.693 21.1644C10.7436 21.3191 10.7688 21.3964 10.7771 21.4492C10.7858 21.5044 10.7873 21.5353 10.7841 21.5911C10.781 21.6444 10.7676 21.7048 10.7409 21.8255L10.3333 23.6666L12.3299 23.3939C12.4389 23.379 12.4933 23.3716 12.5409 23.3719C12.591 23.3723 12.6176 23.375 12.6667 23.3848C12.7134 23.3941 12.7828 23.4186 12.9215 23.4675C13.2871 23.5965 13.6794 23.6666 14.0877 23.6666Z" stroke="#1570EF" stroke-width="1.33333" stroke-linecap="round" stroke-linejoin="round"/>
</g>
<defs>
<clipPath id="clip0_22500_2736">
<rect width="16" height="16" fill="white" transform="translate(9 9)"/>
</clipPath>
</defs>
</svg>
