<svg width="20" height="20" viewBox="0 0 20 20" fill="none" xmlns="http://www.w3.org/2000/svg">
<g clip-path="url(#clip0_12_32)">
<path d="M12.9546 8.27103C13.2662 7.71736 13.5261 7.21777 13.6863 6.83751C14.4645 4.99106 13.695 2.86714 11.8141 2.00077C9.93324 1.1344 8.04453 2.03275 7.21561 3.76728C5.63049 2.67959 3.516 2.83933 2.34993 4.5367C1.18385 6.23407 1.54982 8.45153 3.14693 9.66154C3.87177 10.2107 5.30532 11.02 6.65498 11.7402M13.581 9.79146C13.2293 7.9015 11.6211 6.51928 9.59638 6.89496C7.57162 7.27065 6.26242 9.0974 6.53614 11.0823C6.75606 12.6771 7.96996 16.4188 8.43869 17.8282C8.50266 18.0205 8.53464 18.1167 8.59796 18.1837C8.65312 18.2421 8.72647 18.2845 8.80464 18.303C8.89437 18.3243 8.99364 18.304 9.19218 18.2632C10.6471 17.9644 14.4945 17.1449 15.9855 16.5379C17.8414 15.7825 18.7991 13.7366 18.0818 11.794C17.3644 9.85139 15.3936 9.1511 13.581 9.79146Z" stroke="#EA1870" stroke-width="1.66667" stroke-linecap="round" stroke-linejoin="round"/>
</g>
<defs>
<clipPath id="clip0_12_32">
<rect width="20" height="20" fill="white"/>
</clipPath>
</defs>
</svg>
