<svg width="34" height="34" viewBox="0 0 34 34" fill="none" xmlns="http://www.w3.org/2000/svg">
<g opacity="0.3">
<rect x="6" y="6" width="22" height="22" rx="11" stroke="#16B364" stroke-width="2"/>
</g>
<g opacity="0.1">
<rect x="1" y="1" width="32" height="32" rx="16" stroke="#16B364" stroke-width="2"/>
</g>
<path d="M15 16.3333L16.3333 17.6667L19.3333 14.6667M16.9954 12.4239C15.6625 10.8656 13.4398 10.4464 11.7698 11.8733C10.0998 13.3003 9.86466 15.686 11.1761 17.3736C12.1667 18.6483 14.9809 21.2073 16.2987 22.3833C16.5409 22.5994 16.6621 22.7075 16.8039 22.7501C16.927 22.787 17.0639 22.787 17.187 22.7501C17.3288 22.7075 17.45 22.5994 17.6922 22.3833C19.01 21.2073 21.8242 18.6483 22.8147 17.3736C24.1262 15.686 23.9198 13.2852 22.2211 11.8733C20.5223 10.4614 18.3283 10.8656 16.9954 12.4239Z" stroke="#16B364" stroke-width="1.33333" stroke-linecap="round" stroke-linejoin="round"/>
</svg>
