<svg width="34" height="34" viewBox="0 0 34 34" fill="none" xmlns="http://www.w3.org/2000/svg">
<g opacity="0.3">
<rect x="6" y="6" width="22" height="22" rx="11" stroke="#717680" stroke-width="2"/>
</g>
<g opacity="0.1">
<rect x="1" y="1" width="32" height="32" rx="16" stroke="#717680" stroke-width="2"/>
</g>
<path d="M20.3333 15.6667V14.3333C20.3333 12.4924 18.8409 11 17 11C15.159 11 13.6667 12.4924 13.6667 14.3333V15.6667M17 18.6667V20M14.8667 23H19.1333C20.2534 23 20.8135 23 21.2413 22.782C21.6176 22.5903 21.9236 22.2843 22.1153 21.908C22.3333 21.4802 22.3333 20.9201 22.3333 19.8V18.8667C22.3333 17.7466 22.3333 17.1865 22.1153 16.7587C21.9236 16.3824 21.6176 16.0764 21.2413 15.8847C20.8135 15.6667 20.2534 15.6667 19.1333 15.6667H14.8667C13.7466 15.6667 13.1865 15.6667 12.7587 15.8847C12.3824 16.0764 12.0764 16.3824 11.8846 16.7587C11.6667 17.1865 11.6667 17.7466 11.6667 18.8667V19.8C11.6667 20.9201 11.6667 21.4802 11.8846 21.908C12.0764 22.2843 12.3824 22.5903 12.7587 22.782C13.1865 23 13.7466 23 14.8667 23Z" stroke="#717680" stroke-width="1.33333" stroke-linecap="round" stroke-linejoin="round"/>
</svg>
