<svg width="11" height="12" viewBox="0 0 11 12" fill="none" xmlns="http://www.w3.org/2000/svg">
<path d="M4.76539 6.75524L10.0519 1.46878M4.82963 6.92041L6.15281 10.3229C6.26938 10.6226 6.32766 10.7725 6.41164 10.8162C6.48444 10.8542 6.57116 10.8542 6.64401 10.8164C6.72804 10.7727 6.7865 10.6229 6.90342 10.3233L10.2215 1.8208C10.327 1.55035 10.3798 1.41512 10.3509 1.32871C10.3259 1.25367 10.267 1.19478 10.1919 1.16971C10.1055 1.14084 9.97028 1.19362 9.69983 1.29916L1.19732 4.61721C0.897712 4.73413 0.74791 4.79259 0.704255 4.87662C0.66641 4.94947 0.666461 5.03619 0.704391 5.10899C0.748146 5.19297 0.898016 5.25126 1.19776 5.36782L4.60022 6.691C4.66107 6.71466 4.69149 6.7265 4.71711 6.74477C4.73981 6.76096 4.75967 6.78082 4.77586 6.80353C4.79414 6.82914 4.80597 6.85956 4.82963 6.92041Z" stroke="#FFA1D3" stroke-width="1.00694" stroke-linecap="round" stroke-linejoin="round"/>
</svg>
