<svg width="145" height="98" viewBox="0 0 145 98" fill="none" xmlns="http://www.w3.org/2000/svg">
<mask id="path-1-inside-1_22459_12431" fill="white">
<path d="M88.6707 8.99927C91.1559 8.99927 93.1705 11.0141 93.1707 13.4993V39.9192C93.1707 42.4045 91.1559 44.4192 88.6707 44.4192H78.7517L73.5242 51.2092C72.9237 51.9892 71.7477 51.9892 71.1472 51.2092L65.9207 44.4192H56.0007C53.5155 44.4192 51.5007 42.4045 51.5007 39.9192V13.4993C51.5008 11.0141 53.5155 8.99927 56.0007 8.99927H88.6707Z"/>
</mask>
<path d="M88.6707 8.99927C91.1559 8.99927 93.1705 11.0141 93.1707 13.4993V39.9192C93.1707 42.4045 91.1559 44.4192 88.6707 44.4192H78.7517L73.5242 51.2092C72.9237 51.9892 71.7477 51.9892 71.1472 51.2092L65.9207 44.4192H56.0007C53.5155 44.4192 51.5007 42.4045 51.5007 39.9192V13.4993C51.5008 11.0141 53.5155 8.99927 56.0007 8.99927H88.6707Z" fill="#FFCCE5"/>
<path d="M93.1707 13.4993H94.6707V13.4992L93.1707 13.4993ZM78.7517 44.4192V42.9192H78.0135L77.5631 43.5041L78.7517 44.4192ZM73.5242 51.2092L72.3356 50.2942L72.3356 50.2942L73.5242 51.2092ZM71.1472 51.2092L69.9586 52.1242L69.9586 52.1242L71.1472 51.2092ZM65.9207 44.4192L67.1093 43.5042L66.659 42.9192H65.9207V44.4192ZM51.5007 13.4993L50.0007 13.4992V13.4993H51.5007ZM88.6707 8.99927V10.4993C90.3274 10.4993 91.6706 11.8425 91.6707 13.4993L93.1707 13.4993L94.6707 13.4992C94.6705 10.1857 91.9844 7.49927 88.6707 7.49927V8.99927ZM93.1707 13.4993H91.6707V39.9192H93.1707H94.6707V13.4993H93.1707ZM93.1707 39.9192H91.6707C91.6707 41.576 90.3275 42.9192 88.6707 42.9192V44.4192V45.9192C91.9844 45.9192 94.6707 43.2329 94.6707 39.9192H93.1707ZM88.6707 44.4192V42.9192H78.7517V44.4192V45.9192H88.6707V44.4192ZM78.7517 44.4192L77.5631 43.5041L72.3356 50.2942L73.5242 51.2092L74.7127 52.1243L79.9403 45.3342L78.7517 44.4192ZM73.5242 51.2092L72.3356 50.2942H72.3358L71.1472 51.2092L69.9586 52.1242C71.1595 53.6842 73.5119 53.6842 74.7128 52.1242L73.5242 51.2092ZM71.1472 51.2092L72.3359 50.2943L67.1093 43.5042L65.9207 44.4192L64.732 45.3341L69.9586 52.1242L71.1472 51.2092ZM65.9207 44.4192V42.9192H56.0007V44.4192V45.9192H65.9207V44.4192ZM56.0007 44.4192V42.9192C54.3439 42.9192 53.0007 41.576 53.0007 39.9192H51.5007H50.0007C50.0007 43.2329 52.687 45.9192 56.0007 45.9192V44.4192ZM51.5007 39.9192H53.0007V13.4993H51.5007H50.0007V39.9192H51.5007ZM51.5007 13.4993L53.0007 13.4993C53.0008 11.8425 54.344 10.4993 56.0007 10.4993V8.99927V7.49927C52.687 7.49927 50.0009 10.1857 50.0007 13.4992L51.5007 13.4993ZM56.0007 8.99927V10.4993H88.6707V8.99927V7.49927H56.0007V8.99927Z" fill="url(#paint0_linear_22459_12431)" mask="url(#path-1-inside-1_22459_12431)"/>
<g filter="url(#filter0_f_22459_12431)">
<path fill-rule="evenodd" clip-rule="evenodd" d="M72.4918 23.515C70.0926 20.7626 66.0917 20.0222 63.0856 22.5426C60.0796 25.0629 59.6564 29.2767 62.017 32.2575C63.9798 34.7358 69.9197 39.9628 71.8665 41.6546C72.0843 41.8438 72.1932 41.9385 72.3203 41.9757C72.4311 42.0081 72.5524 42.0081 72.6633 41.9757C72.7903 41.9385 72.8992 41.8438 73.117 41.6546C75.0638 39.9628 81.0038 34.7358 82.9665 32.2575C85.3272 29.2767 84.9557 25.0364 81.8979 22.5426C78.8402 20.0488 74.891 20.7626 72.4918 23.515Z" fill="#FFB6DA"/>
</g>
<g filter="url(#filter1_f_22459_12431)">
<path fill-rule="evenodd" clip-rule="evenodd" d="M72.4918 19.015C70.0926 16.2626 66.0917 15.5222 63.0856 18.0426C60.0796 20.5629 59.6564 24.7767 62.017 27.7575C63.9798 30.2358 69.9197 35.4628 71.8665 37.1546C72.0843 37.3438 72.1932 37.4385 72.3203 37.4757C72.4311 37.5081 72.5524 37.5081 72.6633 37.4757C72.7903 37.4385 72.8992 37.3438 73.117 37.1546C75.0638 35.4628 81.0038 30.2358 82.9665 27.7575C85.3272 24.7767 84.9557 20.5364 81.8979 18.0426C78.8402 15.5488 74.891 16.2626 72.4918 19.015Z" fill="white" fill-opacity="0.84"/>
</g>
<path d="M0.816875 90L6.90688 70.44H12.1869L18.2769 90H13.5969L11.0769 80.1C10.8369 79.12 10.5769 78.08 10.2969 76.98C10.0169 75.88 9.75688 74.82 9.51688 73.8H9.39688C9.15688 74.82 8.90688 75.88 8.64688 76.98C8.38688 78.08 8.12688 79.12 7.86688 80.1L5.31688 90H0.816875ZM4.83688 85.35V81.9H14.1969V85.35H4.83688ZM20.7552 90V86.28H25.3152V74.16H20.7552V70.44H34.3152V74.16H29.7552V86.28H34.3152V90H20.7552ZM65.1917 90.36C63.9717 90.36 62.8117 90.15 61.7117 89.73C60.6317 89.31 59.6717 88.68 58.8317 87.84C57.9917 86.98 57.3317 85.93 56.8517 84.69C56.3717 83.43 56.1317 81.98 56.1317 80.34C56.1317 78.18 56.5417 76.34 57.3617 74.82C58.2017 73.28 59.3217 72.11 60.7217 71.31C62.1417 70.49 63.7217 70.08 65.4617 70.08C66.7017 70.08 67.8217 70.34 68.8217 70.86C69.8217 71.36 70.6517 71.93 71.3117 72.57L68.8817 75.3C68.4217 74.86 67.9117 74.52 67.3517 74.28C66.8117 74.02 66.1817 73.89 65.4617 73.89C64.5417 73.89 63.7217 74.15 63.0017 74.67C62.2817 75.17 61.7117 75.89 61.2917 76.83C60.8717 77.77 60.6617 78.89 60.6617 80.19C60.6617 81.53 60.8717 82.68 61.2917 83.64C61.7117 84.58 62.2917 85.3 63.0317 85.8C63.7917 86.3 64.6617 86.55 65.6417 86.55C66.3617 86.55 67.0117 86.39 67.5917 86.07C68.1717 85.75 68.7017 85.33 69.1817 84.81L71.6117 87.48C70.8117 88.42 69.8717 89.14 68.7917 89.64C67.7117 90.12 66.5117 90.36 65.1917 90.36ZM75.98 90V75.12H79.58L79.94 78.36H80.03C80.77 77.14 81.66 76.24 82.7 75.66C83.76 75.06 84.88 74.76 86.06 74.76C86.72 74.76 87.25 74.81 87.65 74.91C88.07 75.01 88.5 75.16 88.94 75.36L88.04 79.05C87.58 78.91 87.16 78.81 86.78 78.75C86.42 78.67 85.96 78.63 85.4 78.63C84.48 78.63 83.57 78.9 82.67 79.44C81.79 79.98 81.03 80.92 80.39 82.26V90H75.98ZM97.1783 90.36C95.4783 90.36 94.2483 89.82 93.4883 88.74C92.7283 87.66 92.3483 86.18 92.3483 84.3V75.12H96.7583V83.73C96.7583 84.73 96.9083 85.46 97.2083 85.92C97.5283 86.38 98.0983 86.61 98.9183 86.61C99.4783 86.61 99.9783 86.49 100.418 86.25C100.858 86.01 101.328 85.56 101.828 84.9V75.12H106.238V90H102.638L102.308 87.87H102.188C101.528 88.61 100.798 89.21 99.9983 89.67C99.1983 90.13 98.2583 90.36 97.1783 90.36ZM117.357 90.36C116.037 90.36 114.727 90.14 113.427 89.7C112.127 89.24 111.007 88.7 110.067 88.08L111.957 85.32C112.857 85.9 113.807 86.34 114.807 86.64C115.827 86.94 116.877 87.09 117.957 87.09C118.777 87.09 119.377 86.97 119.757 86.73C120.137 86.47 120.327 86.17 120.327 85.83C120.327 85.61 120.267 85.43 120.147 85.29C120.047 85.13 119.857 84.99 119.577 84.87C119.317 84.73 118.947 84.6 118.467 84.48C118.007 84.36 117.407 84.22 116.667 84.06C114.647 83.62 113.197 83.02 112.317 82.26C111.437 81.5 110.997 80.55 110.997 79.41C110.997 78.01 111.607 76.89 112.827 76.05C114.047 75.19 115.717 74.76 117.837 74.76C119.177 74.76 120.387 74.98 121.467 75.42C122.567 75.84 123.507 76.3 124.287 76.8L122.307 79.44C121.567 78.98 120.777 78.63 119.937 78.39C119.097 78.15 118.267 78.03 117.447 78.03C116.987 78.03 116.607 78.08 116.307 78.18C116.007 78.26 115.777 78.4 115.617 78.6C115.457 78.78 115.377 78.98 115.377 79.2C115.377 79.6 115.637 79.9 116.157 80.1C116.677 80.28 117.567 80.51 118.827 80.79C120.347 81.13 121.537 81.52 122.397 81.96C123.257 82.4 123.847 82.91 124.167 83.49C124.507 84.05 124.677 84.74 124.677 85.56C124.677 86.46 124.397 87.27 123.837 87.99C123.297 88.71 122.477 89.29 121.377 89.73C120.297 90.15 118.957 90.36 117.357 90.36ZM128.625 90V68.97H133.035V74.13L132.795 76.98H132.885C133.445 76.4 134.125 75.89 134.925 75.45C135.745 74.99 136.715 74.76 137.835 74.76C139.515 74.76 140.735 75.3 141.495 76.38C142.275 77.46 142.665 78.94 142.665 80.82V90H138.255V81.39C138.255 80.39 138.085 79.66 137.745 79.2C137.425 78.74 136.865 78.51 136.065 78.51C135.465 78.51 134.935 78.65 134.475 78.93C134.035 79.19 133.555 79.57 133.035 80.07V90H128.625Z" fill="#EA1870"/>
<defs>
<filter id="filter0_f_22459_12431" x="59.75" y="20.25" width="25.5" height="22.5" filterUnits="userSpaceOnUse" color-interpolation-filters="sRGB">
<feFlood flood-opacity="0" result="BackgroundImageFix"/>
<feBlend mode="normal" in="SourceGraphic" in2="BackgroundImageFix" result="shape"/>
<feGaussianBlur stdDeviation="0" result="effect1_foregroundBlur_22459_12431"/>
</filter>
<filter id="filter1_f_22459_12431" x="59.75" y="15.75" width="25.5" height="22.5" filterUnits="userSpaceOnUse" color-interpolation-filters="sRGB">
<feFlood flood-opacity="0" result="BackgroundImageFix"/>
<feBlend mode="normal" in="SourceGraphic" in2="BackgroundImageFix" result="shape"/>
<feGaussianBlur stdDeviation="0" result="effect1_foregroundBlur_22459_12431"/>
</filter>
<linearGradient id="paint0_linear_22459_12431" x1="57.2676" y1="0.65474" x2="81.7345" y2="60.094" gradientUnits="userSpaceOnUse">
<stop stop-color="#FFE3F1"/>
<stop offset="1" stop-color="#FFB6DA"/>
</linearGradient>
</defs>
</svg>
