<svg width="21" height="20" viewBox="0 0 21 20" fill="none" xmlns="http://www.w3.org/2000/svg">
<path d="M7.41667 14.1668H14.0833M9.93141 2.30345L4.27949 6.69939C3.90168 6.99324 3.71278 7.14017 3.57669 7.32417C3.45614 7.48716 3.36633 7.67077 3.31169 7.866C3.25 8.08639 3.25 8.3257 3.25 8.80433V14.8334C3.25 15.7669 3.25 16.2336 3.43166 16.5901C3.59144 16.9037 3.84641 17.1587 4.16002 17.3185C4.51654 17.5001 4.98325 17.5001 5.91667 17.5001H15.5833C16.5168 17.5001 16.9835 17.5001 17.34 17.3185C17.6536 17.1587 17.9086 16.9037 18.0683 16.5901C18.25 16.2336 18.25 15.7669 18.25 14.8334V8.80433C18.25 8.3257 18.25 8.08639 18.1883 7.866C18.1337 7.67077 18.0439 7.48716 17.9233 7.32417C17.7872 7.14017 17.5983 6.99324 17.2205 6.69939L11.5686 2.30345C11.2758 2.07574 11.1294 1.96189 10.9678 1.91812C10.8252 1.87951 10.6748 1.87951 10.5322 1.91812C10.3706 1.96189 10.2242 2.07574 9.93141 2.30345Z" stroke="#EA1870" stroke-width="1.67" stroke-linecap="round" stroke-linejoin="round"/>
</svg>
