<svg width="21" height="20" viewBox="0 0 21 20" fill="none" xmlns="http://www.w3.org/2000/svg">
<path d="M2.75 6.5C2.75 5.09987 2.75 4.3998 3.02248 3.86502C3.26217 3.39462 3.64462 3.01217 4.11502 2.77248C4.6498 2.5 5.34987 2.5 6.75 2.5H13.75C15.1501 2.5 15.8502 2.5 16.385 2.77248C16.8554 3.01217 17.2378 3.39462 17.4775 3.86502C17.75 4.3998 17.75 5.09987 17.75 6.5V13.5C17.75 14.9001 17.75 15.6002 17.4775 16.135C17.2378 16.6054 16.8554 16.9878 16.385 17.2275C15.8502 17.5 15.1501 17.5 13.75 17.5H6.75C5.34987 17.5 4.6498 17.5 4.11502 17.2275C3.64462 16.9878 3.26217 16.6054 3.02248 16.135C2.75 15.6002 2.75 14.9001 2.75 13.5V6.5Z" stroke="#A4A7AE" stroke-width="1.67" stroke-linecap="round" stroke-linejoin="round"/>
<path fill-rule="evenodd" clip-rule="evenodd" d="M10.2471 7.55659C9.41408 6.58267 8.02489 6.32068 6.98112 7.21251C5.93735 8.10433 5.7904 9.59541 6.61008 10.6502C7.13509 11.3257 8.47965 12.5785 9.37853 13.392C9.67724 13.6623 9.82659 13.7974 10.0055 13.8516C10.1593 13.8982 10.335 13.8982 10.4888 13.8516C10.6677 13.7974 10.8171 13.6623 11.1158 13.392C12.0146 12.5785 13.3592 11.3257 13.8842 10.6502C14.7039 9.59541 14.5749 8.09495 13.5132 7.21251C12.4515 6.33007 11.0802 6.58267 10.2471 7.55659Z" stroke="#A4A7AE" stroke-width="1.67" stroke-linecap="round" stroke-linejoin="round"/>
</svg>
